<svg width="314" height="76" viewBox="0 0 314 76" fill="none" xmlns="http://www.w3.org/2000/svg">
<rect y="30" width="21" height="40" fill="#3D99A8"/>
<rect x="63" y="30" width="21" height="40" fill="#3D99A8"/>
<rect x="32" y="30" width="21" height="40" fill="#47A6B8"/>
<path d="M48 6H70.5L84 30H63L48 6Z" fill="#3B92A0"/>
<path d="M36 6H13.5L0 30H21L36 6Z" fill="#3B92A0"/>
<path d="M13.5 6H36L53 30H32L13.5 6Z" fill="#5CB7C9"/>
<path d="M70.5 6H48L32 30H53L70.5 6Z" fill="#87C2D0"/>
<path d="M117.504 32H112L103.712 20.416V32H98.88V9.152H103.712V20.224L111.904 9.152H117.056L108.736 20.128L117.504 32ZM140.491 20.544C140.491 22.3147 140.267 23.9253 139.819 25.376C139.392 26.8053 138.731 28.0427 137.835 29.088C136.96 30.1333 135.83 30.9333 134.443 31.488C133.078 32.0427 131.467 32.32 129.611 32.32C127.755 32.32 126.134 32.0427 124.747 31.488C123.382 30.912 122.251 30.112 121.355 29.088C120.48 28.0427 119.819 26.7947 119.371 25.344C118.944 23.8933 118.731 22.2827 118.731 20.512C118.731 18.144 119.115 16.0853 119.883 14.336C120.672 12.5867 121.867 11.232 123.467 10.272C125.088 9.29067 127.147 8.8 129.643 8.8C132.118 8.8 134.155 9.29067 135.755 10.272C137.355 11.232 138.539 12.5973 139.307 14.368C140.096 16.1173 140.491 18.176 140.491 20.544ZM123.819 20.544C123.819 22.144 124.022 23.52 124.427 24.672C124.832 25.824 125.462 26.7093 126.315 27.328C127.168 27.9467 128.267 28.256 129.611 28.256C130.998 28.256 132.107 27.9467 132.939 27.328C133.792 26.7093 134.411 25.824 134.795 24.672C135.2 23.52 135.403 22.144 135.403 20.544C135.403 18.1333 134.955 16.2453 134.059 14.88C133.163 13.5147 131.691 12.832 129.643 12.832C128.278 12.832 127.168 13.1413 126.315 13.76C125.462 14.3787 124.832 15.264 124.427 16.416C124.022 17.568 123.819 18.944 123.819 20.544ZM162.679 32H157.847V13.184H152.247C152.119 14.1653 151.98 15.232 151.831 16.384C151.703 17.536 151.553 18.7093 151.383 19.904C151.233 21.0773 151.073 22.1973 150.903 23.264C150.732 24.3093 150.561 25.2373 150.391 26.048C150.113 27.3707 149.74 28.5013 149.271 29.44C148.823 30.3787 148.193 31.0933 147.383 31.584C146.593 32.0747 145.559 32.32 144.279 32.32C143.852 32.32 143.447 32.288 143.063 32.224C142.679 32.16 142.316 32.0747 141.975 31.968V28C142.252 28.0853 142.519 28.16 142.775 28.224C143.052 28.288 143.351 28.32 143.671 28.32C144.097 28.32 144.449 28.1813 144.727 27.904C145.004 27.6267 145.249 27.1573 145.463 26.496C145.676 25.8133 145.889 24.8747 146.103 23.68C146.209 23.168 146.337 22.4427 146.487 21.504C146.636 20.544 146.807 19.424 146.999 18.144C147.212 16.8427 147.425 15.4347 147.639 13.92C147.852 12.384 148.055 10.7947 148.247 9.152H162.679V32ZM186.523 32H181.691V13.184H176.091C175.963 14.1653 175.824 15.232 175.675 16.384C175.547 17.536 175.397 18.7093 175.227 19.904C175.077 21.0773 174.917 22.1973 174.747 23.264C174.576 24.3093 174.405 25.2373 174.235 26.048C173.957 27.3707 173.584 28.5013 173.115 29.44C172.667 30.3787 172.037 31.0933 171.227 31.584C170.437 32.0747 169.403 32.32 168.123 32.32C167.696 32.32 167.291 32.288 166.907 32.224C166.523 32.16 166.16 32.0747 165.819 31.968V28C166.096 28.0853 166.363 28.16 166.618 28.224C166.896 28.288 167.195 28.32 167.515 28.32C167.941 28.32 168.293 28.1813 168.571 27.904C168.848 27.6267 169.093 27.1573 169.307 26.496C169.52 25.8133 169.733 24.8747 169.947 23.68C170.053 23.168 170.181 22.4427 170.331 21.504C170.48 20.544 170.651 19.424 170.843 18.144C171.056 16.8427 171.269 15.4347 171.483 13.92C171.696 12.384 171.899 10.7947 172.091 9.152H186.523V32ZM205.438 32H192.286V9.152H205.438V13.12H197.118V18.144H204.862V22.112H197.118V28H205.438V32ZM228.081 9.152V27.968H231.121V38.656H226.449V32H212.145V38.656H207.473V27.968H209.233C209.83 26.7733 210.406 25.5147 210.961 24.192C211.515 22.8693 212.027 21.4507 212.497 19.936C212.987 18.4213 213.425 16.7787 213.809 15.008C214.193 13.216 214.513 11.264 214.769 9.152H228.081ZM218.609 13.184C218.459 14.2933 218.246 15.4773 217.969 16.736C217.691 17.9733 217.361 19.2427 216.977 20.544C216.614 21.8453 216.209 23.1253 215.76 24.384C215.313 25.6427 214.833 26.8373 214.321 27.968H223.249V13.184H218.609ZM239.878 20.128L232.198 9.152H237.19L244.582 20.224V9.152H249.094V20.224L256.486 9.152H261.478L253.798 20.128L261.926 32H256.742L249.094 20.416V32H244.582V20.416L236.934 32H231.75L239.878 20.128ZM108.544 70L103.04 52.08H102.912C102.933 52.5067 102.965 53.1467 103.008 54C103.051 54.8533 103.093 55.7707 103.136 56.752C103.179 57.712 103.2 58.5867 103.2 59.376V70H98.88V47.152H105.472L110.88 64.624H110.976L116.704 47.152H123.296V70H118.784V59.184C118.784 58.4587 118.795 57.6267 118.816 56.688C118.859 55.7493 118.891 54.864 118.912 54.032C118.955 53.1787 118.987 52.5387 119.008 52.112H118.88L112.992 70H108.544ZM142.22 70H129.068V47.152H142.22V51.12H133.9V56.144H141.644V60.112H133.9V66H142.22V70ZM155.774 70H150.942V51.184H144.734V47.152H161.982V51.184H155.774V70ZM172.801 47.152C175.745 47.152 177.889 47.792 179.233 49.072C180.598 50.3307 181.281 52.0693 181.281 54.288C181.281 55.2907 181.132 56.2507 180.833 57.168C180.534 58.064 180.033 58.8747 179.329 59.6C178.646 60.304 177.74 60.8587 176.609 61.264C175.478 61.6693 174.081 61.872 172.417 61.872H170.337V70H165.505V47.152H172.801ZM172.545 51.12H170.337V57.904H171.937C172.854 57.904 173.644 57.7867 174.305 57.552C174.966 57.3173 175.478 56.944 175.841 56.432C176.204 55.92 176.385 55.2587 176.385 54.448C176.385 53.3173 176.076 52.4853 175.457 51.952C174.838 51.3973 173.868 51.12 172.545 51.12ZM206.335 58.544C206.335 60.3147 206.111 61.9253 205.663 63.376C205.236 64.8053 204.575 66.0427 203.679 67.088C202.804 68.1333 201.673 68.9333 200.287 69.488C198.921 70.0427 197.311 70.32 195.455 70.32C193.599 70.32 191.977 70.0427 190.591 69.488C189.225 68.912 188.095 68.112 187.199 67.088C186.324 66.0427 185.663 64.7947 185.215 63.344C184.788 61.8933 184.575 60.2827 184.575 58.512C184.575 56.144 184.959 54.0853 185.727 52.336C186.516 50.5867 187.711 49.232 189.311 48.272C190.932 47.2907 192.991 46.8 195.487 46.8C197.961 46.8 199.999 47.2907 201.599 48.272C203.199 49.232 204.383 50.5973 205.151 52.368C205.94 54.1173 206.335 56.176 206.335 58.544ZM189.663 58.544C189.663 60.144 189.865 61.52 190.271 62.672C190.676 63.824 191.305 64.7093 192.159 65.328C193.012 65.9467 194.111 66.256 195.455 66.256C196.841 66.256 197.951 65.9467 198.783 65.328C199.636 64.7093 200.255 63.824 200.639 62.672C201.044 61.52 201.247 60.144 201.247 58.544C201.247 56.1333 200.799 54.2453 199.903 52.88C199.007 51.5147 197.535 50.832 195.487 50.832C194.121 50.832 193.012 51.1413 192.159 51.76C191.305 52.3787 190.676 53.264 190.271 54.416C189.865 55.568 189.663 56.944 189.663 58.544ZM220.764 50.864C219.846 50.864 219.025 51.0453 218.3 51.408C217.596 51.7707 216.998 52.2933 216.508 52.976C216.017 53.6373 215.644 54.448 215.388 55.408C215.153 56.368 215.036 57.4453 215.036 58.64C215.036 60.2613 215.228 61.648 215.612 62.8C216.017 63.9307 216.646 64.7947 217.5 65.392C218.353 65.9893 219.441 66.288 220.764 66.288C221.702 66.288 222.63 66.1813 223.548 65.968C224.486 65.7547 225.5 65.456 226.588 65.072V69.136C225.585 69.5413 224.593 69.84 223.612 70.032C222.63 70.224 221.532 70.32 220.316 70.32C217.969 70.32 216.028 69.84 214.492 68.88C212.977 67.8987 211.857 66.5333 211.132 64.784C210.406 63.0133 210.044 60.9547 210.044 58.608C210.044 56.88 210.278 55.3013 210.748 53.872C211.217 52.4213 211.9 51.1733 212.796 50.128C213.713 49.0827 214.833 48.272 216.156 47.696C217.5 47.12 219.036 46.832 220.764 46.832C221.894 46.832 223.025 46.9813 224.156 47.28C225.308 47.5573 226.406 47.9413 227.452 48.432L225.884 52.368C225.03 51.9627 224.166 51.6107 223.292 51.312C222.438 51.0133 221.596 50.864 220.764 50.864ZM240.243 70H235.411V51.184H229.203V47.152H246.451V51.184H240.243V70ZM257.27 47.152C260.214 47.152 262.358 47.792 263.702 49.072C265.067 50.3307 265.75 52.0693 265.75 54.288C265.75 55.2907 265.6 56.2507 265.302 57.168C265.003 58.064 264.502 58.8747 263.798 59.6C263.115 60.304 262.208 60.8587 261.078 61.264C259.947 61.6693 258.55 61.872 256.886 61.872H254.806V70H249.974V47.152H257.27ZM257.014 51.12H254.806V57.904H256.406C257.323 57.904 258.112 57.7867 258.774 57.552C259.435 57.3173 259.947 56.944 260.31 56.432C260.672 55.92 260.854 55.2587 260.854 54.448C260.854 53.3173 260.544 52.4853 259.926 51.952C259.307 51.3973 258.336 51.12 257.014 51.12ZM290.804 58.544C290.804 60.3147 290.58 61.9253 290.132 63.376C289.705 64.8053 289.044 66.0427 288.148 67.088C287.273 68.1333 286.142 68.9333 284.756 69.488C283.39 70.0427 281.78 70.32 279.924 70.32C278.068 70.32 276.446 70.0427 275.06 69.488C273.694 68.912 272.564 68.112 271.668 67.088C270.793 66.0427 270.132 64.7947 269.684 63.344C269.257 61.8933 269.044 60.2827 269.044 58.512C269.044 56.144 269.428 54.0853 270.196 52.336C270.985 50.5867 272.18 49.232 273.78 48.272C275.401 47.2907 277.46 46.8 279.956 46.8C282.43 46.8 284.468 47.2907 286.068 48.272C287.668 49.232 288.852 50.5973 289.62 52.368C290.409 54.1173 290.804 56.176 290.804 58.544ZM274.132 58.544C274.132 60.144 274.334 61.52 274.74 62.672C275.145 63.824 275.774 64.7093 276.628 65.328C277.481 65.9467 278.58 66.256 279.924 66.256C281.31 66.256 282.42 65.9467 283.252 65.328C284.105 64.7093 284.724 63.824 285.108 62.672C285.513 61.52 285.716 60.144 285.716 58.544C285.716 56.1333 285.268 54.2453 284.372 52.88C283.476 51.5147 282.004 50.832 279.956 50.832C278.59 50.832 277.481 51.1413 276.628 51.76C275.774 52.3787 275.145 53.264 274.74 54.416C274.334 55.568 274.132 56.944 274.132 58.544ZM303.216 61.232L297.872 70H292.496L298.992 59.952C298.374 59.696 297.755 59.3227 297.136 58.832C296.518 58.32 296.006 57.648 295.6 56.816C295.195 55.9627 294.992 54.9173 294.992 53.68C294.992 51.568 295.75 49.9573 297.264 48.848C298.779 47.7173 300.902 47.152 303.632 47.152H311.056V70H306.224V61.232H303.216ZM303.824 51.12C302.992 51.12 302.278 51.216 301.68 51.408C301.104 51.6 300.656 51.9093 300.336 52.336C300.038 52.7627 299.888 53.328 299.888 54.032C299.888 55.0347 300.219 55.8347 300.88 56.432C301.563 57.008 302.587 57.296 303.952 57.296H306.224V51.12H303.824Z" fill="#3D99A8"/>
</svg>
