<svg width="10" height="12" viewBox="0 0 10 12" fill="none" xmlns="http://www.w3.org/2000/svg">
<mask id="path-1-inside-1_310_1357" fill="white">
<path d="M1 3H9V11C9 11.5523 8.55228 12 8 12H2C1.44772 12 1 11.5523 1 11V3Z"/>
</mask>
<path d="M1 3H9H1ZM10 11C10 12.1046 9.10457 13 8 13H2C0.895431 13 0 12.1046 0 11H2H8H10ZM2 13C0.895431 13 0 12.1046 0 11V3H2V11V13ZM10 3V11C10 12.1046 9.10457 13 8 13V11V3H10Z" fill="white" mask="url(#path-1-inside-1_310_1357)"/>
<mask id="path-3-inside-2_310_1357" fill="white">
<path d="M3 4.5C3 4.22386 3.22386 4 3.5 4V4C3.77614 4 4 4.22386 4 4.5V9.5C4 9.77614 3.77614 10 3.5 10V10C3.22386 10 3 9.77614 3 9.5V4.5Z"/>
</mask>
<path d="M3 4H4H3ZM5 9.5C5 10.3284 4.32843 11 3.5 11C2.67157 11 2 10.3284 2 9.5L4 9H3L5 9.5ZM3.5 11C2.67157 11 2 10.3284 2 9.5V5.5C2 4.67157 2.67157 4 3.5 4C3.63261 4 3.75979 4.05268 3.85355 4.14645C3.94732 4.24021 4 4.36739 4 4.5L4 4.5V4L4 9.5C4 9.63261 3.94732 9.75979 3.85355 9.85355C3.75979 9.94732 3.63261 10 3.5 10L3.5 11ZM3.5 4C4.32843 4 5 4.67157 5 5.5V9.5C5 10.3284 4.32843 11 3.5 11V10C3.36739 10 3.24021 9.94732 3.14645 9.85355C3.05268 9.75979 3 9.63261 3 9.5L3 4.5V4L3 4.5C3 4.36739 3.05268 4.24021 3.14645 4.14645C3.24021 4.05268 3.36739 4 3.5 4L3.5 4Z" fill="white" mask="url(#path-3-inside-2_310_1357)"/>
<mask id="path-5-inside-3_310_1357" fill="white">
<path d="M6 4.5C6 4.22386 6.22386 4 6.5 4V4C6.77614 4 7 4.22386 7 4.5V9.5C7 9.77614 6.77614 10 6.5 10V10C6.22386 10 6 9.77614 6 9.5V4.5Z"/>
</mask>
<path d="M6 4H7H6ZM8 9.5C8 10.3284 7.32843 11 6.5 11C5.67157 11 5 10.3284 5 9.5L7 9H6L8 9.5ZM6.5 11C5.67157 11 5 10.3284 5 9.5V5.5C5 4.67157 5.67157 4 6.5 4C6.63261 4 6.75979 4.05268 6.85355 4.14645C6.94732 4.24021 7 4.36739 7 4.5L7 4.5V4L7 9.5C7 9.63261 6.94732 9.75979 6.85355 9.85355C6.75979 9.94732 6.63261 10 6.5 10L6.5 11ZM6.5 4C7.32843 4 8 4.67157 8 5.5V9.5C8 10.3284 7.32843 11 6.5 11V10C6.36739 10 6.24021 9.94732 6.14645 9.85355C6.05268 9.75979 6 9.63261 6 9.5L6 4.5V4L6 4.5C6 4.36739 6.05268 4.24021 6.14645 4.14645C6.24021 4.05268 6.36739 4 6.5 4L6.5 4Z" fill="white" mask="url(#path-5-inside-3_310_1357)"/>
<mask id="path-7-inside-4_310_1357" fill="white">
<path d="M0 1.5C0 1.22386 0.223858 1 0.5 1H9.5C9.77614 1 10 1.22386 10 1.5V1.5C10 1.77614 9.77614 2 9.5 2H0.5C0.223858 2 0 1.77614 0 1.5V1.5Z"/>
</mask>
<path d="M0 1H10H0ZM11 2C11 2.55228 10.5523 3 10 3H0C-0.552285 3 -1 2.55228 -1 2L0 1.5C1.58134e-09 1.36739 0.0526784 1.24021 0.146447 1.14645C0.240215 1.05268 0.367392 1 0.5 1H0.5H0H9.5C9.63261 1 9.75979 1.05268 9.85355 1.14645C9.94732 1.24021 10 1.36739 10 1.5L11 2ZM0 3C-0.552285 3 -1 2.55228 -1 2C-1 1.44772 -0.552285 1 0 1H1C1 1 1 1.22386 1 1.5V1L0 3ZM10 1C10.5523 1 11 1.44772 11 2C11 2.55228 10.5523 3 10 3L9 1V1.5C9 1.22386 9 1 9 1H10Z" fill="white" mask="url(#path-7-inside-4_310_1357)"/>
<mask id="path-9-inside-5_310_1357" fill="white">
<path d="M4 1C4 0.447715 4.44772 0 5 0V0C5.55228 0 6 0.447715 6 1V1H4V1Z"/>
</mask>
<path d="M4 0H6H4ZM7 2H3L4 1C4 0.734783 4.10536 0.48043 4.29289 0.292893C4.48043 0.105357 4.73478 -3.16267e-09 5 0L5 0H4L5 0C5.26522 3.16268e-09 5.51957 0.105357 5.70711 0.292893C5.89464 0.48043 6 0.734784 6 1L7 2ZM3 2C3 0.895431 3.89543 0 5 0C5 0 5 0.447715 5 1V0L3 2ZM5 0C6.10457 0 7 0.895431 7 2L5 0V1C5 0.447715 5 0 5 0Z" fill="white" mask="url(#path-9-inside-5_310_1357)"/>
</svg>
